# Blender v2.78 (sub 0) OBJ File: ''
# www.blender.org
mtllib room_walls.mtl
o default
v -0.499500 0.005640 2.000000
v -0.499500 1.404360 2.000000
v 0.499500 1.404360 2.000000
v 0.499500 0.005640 2.000000
v -2.000000 0.000000 -2.000000
v -2.000000 1.410000 2.000000
v -2.000000 -0.000000 2.000000
v -2.000000 1.410000 -2.000000
v 2.000000 1.410000 2.000000
v 2.000000 0.000000 -2.000000
v 2.000000 -0.000000 2.000000
v 2.000000 1.410000 -2.000000
v 0.500000 1.410000 -2.000000
v 0.500000 0.000000 -2.000000
v -0.500000 0.000000 -2.000000
v -0.500000 1.410000 -2.000000
vt 2.5000 0.5000
vt -1.5000 1.0000
vt -1.5000 0.5000
vt 2.5000 1.0000
vt -1.5000 1.0000
vt 2.5000 0.5000
vt -1.5000 0.5000
vt 2.5000 1.0000
vt 0.0005 0.5020
vt 0.0005 0.9980
vt 0.9995 0.5020
vt 2.5000 1.0000
vt 2.5000 0.5000
vt 0.9995 0.9980
vt 1.0000 1.0000
vt 1.0000 0.5000
vt -1.5000 1.0000
vt -1.5000 0.5000
vt 0.0000 0.5000
vt 0.0000 1.0000
vn 0.8962 -0.0000 0.4437
vn 0.7080 0.0000 -0.7063
vn 0.4331 -0.0000 0.9013
vn -0.7080 0.0000 -0.7063
vn -0.8962 -0.0000 0.4437
vn -0.4331 -0.0000 0.9013
vn -0.0000 0.0000 -1.0000
vn 0.0000 -0.0000 1.0000
usemtl Default
s 1
f 5/1/1 6/2/2 7/3/2
f 8/4/3 6/2/2 5/1/1
f 9/5/4 10/6/5 11/7/4
f 9/5/4 12/8/6 10/6/5
f 6/2/2 1/9/7 7/3/2
f 6/2/2 2/10/7 1/9/7
f 4/11/7 9/12/4 11/13/4
f 3/14/7 9/12/4 4/11/7
f 12/8/6 13/15/8 14/16/8
f 10/6/5 12/8/6 14/16/8
f 8/17/3 5/18/1 15/19/8
f 16/20/8 8/17/3 15/19/8
